<svg width="24" height="24" viewBox="0 0 24 24" fill="none" xmlns="http://www.w3.org/2000/svg">
<path fill-rule="evenodd" clip-rule="evenodd" d="M20.9998 12.0675C20.9635 17.007 16.948 21 12 21C7.02944 21 3 16.9706 3 12C3 9.27853 4.20793 6.83918 6.1169 5.18885L11.8125 15.0655C12.3647 16.023 13.589 16.3511 14.546 15.7979L20.9998 12.0675ZM20.2786 8.46366L15.5823 11.1783C15.1038 11.4548 14.4917 11.2908 14.2156 10.812L9.85838 3.25637C10.5448 3.08882 11.262 3 12 3C15.7152 3 18.9046 5.25107 20.2786 8.46366ZM24 12C24 18.6274 18.6274 24 12 24C5.37258 24 0 18.6274 0 12C0 5.37258 5.37258 0 12 0C18.6274 0 24 5.37258 24 12Z" fill="#4E4E4E"/>
</svg>
