<svg width="122" height="122" viewBox="0 0 122 122" fill="none" xmlns="http://www.w3.org/2000/svg">
<path d="M52.8665 91.4998C71.9571 91.4998 87.4331 76.0238 87.4331 56.9331C87.4331 37.8425 71.9571 22.3665 52.8665 22.3665C33.7758 22.3665 18.2998 37.8425 18.2998 56.9331C18.2998 76.0238 33.7758 91.4998 52.8665 91.4998Z" stroke="white" stroke-width="2" stroke-miterlimit="10"/>
<path d="M71.6934 85.9264L102.262 116.496C103.184 117.417 104.432 117.933 105.733 117.933C107.035 117.933 108.283 117.417 109.204 116.496L112.429 113.271C113.35 112.35 113.867 111.101 113.867 109.8C113.867 108.498 113.35 107.25 112.429 106.329L81.86 75.7598" stroke="white" stroke-width="2" stroke-miterlimit="10"/>
<path d="M68.6392 17.2405C63.7592 15.3007 58.438 14.2332 52.8666 14.2332C49.471 14.2332 46.1688 14.6297 43.0029 15.3779" stroke="white" stroke-width="2" stroke-miterlimit="10"/>
<path d="M80.9956 24.8065C78.7589 22.8464 76.3169 21.1181 73.7061 19.6541" stroke="white" stroke-width="2" stroke-miterlimit="10"/>
<path d="M10.3921 61.429C10.9492 66.7014 12.5027 71.9576 15.1359 76.927C16.6995 79.8774 18.56 82.5695 20.6604 84.9851" stroke="white" stroke-width="2" stroke-miterlimit="10"/>
<path d="M40.2536 7.67773C33.1105 9.50163 26.5733 12.8383 21.002 17.3259" stroke="white" stroke-width="2" stroke-miterlimit="10"/>
<path d="M50.4632 6.15479C48.6169 6.24222 46.7971 6.42522 45.0098 6.70379" stroke="white" stroke-width="2" stroke-miterlimit="10"/>
<path d="M60.7252 6.70378C58.8871 6.41911 57.0144 6.23205 55.1152 6.14868" stroke="white" stroke-width="2" stroke-miterlimit="10"/>
<path d="M70.7212 9.32473C69.0172 8.68423 67.2686 8.1332 65.4854 7.67773" stroke="white" stroke-width="2" stroke-miterlimit="10"/>
<path d="M80.2514 14.0991C78.8281 13.1861 77.2868 12.263 75.772 11.4944" stroke="white" stroke-width="2" stroke-miterlimit="10"/>
<path d="M103.373 62.7322C103.588 60.829 103.7 58.8933 103.7 56.9332C103.7 47.5493 101.158 38.7592 96.7236 31.2156" stroke="white" stroke-width="2" stroke-miterlimit="10"/>
<path d="M101.667 71.2113C102.033 69.9568 102.352 68.6819 102.622 67.3887" stroke="white" stroke-width="2" stroke-miterlimit="10"/>
<path d="M69.1333 105.109C70.516 104.641 71.8742 104.117 73.2 103.537" stroke="white" stroke-width="2" stroke-miterlimit="10"/>
<path d="M61 107.12C62.3745 106.898 63.7308 106.622 65.0667 106.294" stroke="white" stroke-width="2" stroke-miterlimit="10"/>
<path d="M26.7949 100.581C34.4179 105.144 43.3361 107.767 52.8663 107.767C54.1697 107.767 55.4629 107.718 56.7419 107.62" stroke="white" stroke-width="2" stroke-miterlimit="10"/>
<path d="M14.5464 90.3347C16.6692 92.7686 19.0197 94.9972 21.5655 96.9898" stroke="white" stroke-width="2" stroke-miterlimit="10"/>
<path d="M27.8525 48.3687C30.4308 40.8373 36.3864 34.6824 44.1497 31.9719" stroke="white" stroke-width="2" stroke-miterlimit="10"/>
<path d="M26.4331 56.9332C26.4331 55.638 26.5266 54.3651 26.7056 53.1187" stroke="white" stroke-width="2" stroke-miterlimit="10"/>
<path d="M11.2991 47.1184C10.5589 50.2701 10.1665 53.5559 10.1665 56.9333" stroke="white" stroke-width="2" stroke-miterlimit="10"/>
</svg>
