<svg width="122" height="122" viewBox="0 0 122 122" fill="none" xmlns="http://www.w3.org/2000/svg">
<path d="M48.8003 38.6333C48.8003 42.4722 49.4876 46.1465 50.7117 49.5645C50.7788 49.7536 50.8316 49.9468 50.8337 50.1399C50.8377 50.5812 50.6527 51.0143 50.3294 51.3376L13.0462 88.6208C11.202 90.465 10.167 92.9599 10.167 95.5666C10.167 98.1713 11.204 100.67 13.0462 102.513L17.4606 106.927C19.3007 108.767 21.7956 109.8 24.4003 109.8C27.003 109.8 29.502 108.765 31.3421 106.925L68.6253 69.6416C68.9446 69.3224 69.3634 69.1333 69.7965 69.1333C69.9999 69.1333 70.2073 69.1841 70.4065 69.2573C73.8246 70.4814 77.4968 71.1666 81.3337 71.1666C99.3002 71.1666 113.867 56.6019 113.867 38.6333C113.867 33.6821 112.738 29.0014 110.756 24.8026C110.632 24.5382 110.37 24.4 110.105 24.4C109.922 24.4 109.735 24.465 109.593 24.6094L91.5003 42.7L77.267 28.4666L95.3576 10.3761C95.5019 10.2317 95.567 10.0467 95.567 9.86164C95.567 9.59731 95.4287 9.33501 95.1644 9.21098C90.9656 7.22848 86.2869 6.09998 81.3337 6.09998C63.3671 6.09998 48.8003 20.6647 48.8003 38.6333V38.6333Z" stroke="white" stroke-width="2" stroke-miterlimit="10"/>
<path d="M56.1222 94.3447L38.2838 112.183C34.6014 115.866 29.6076 117.933 24.4002 117.933C19.1928 117.933 14.199 115.866 10.5166 112.183L8.94482 110.611" stroke="white" stroke-width="2" stroke-miterlimit="10"/>
<path d="M61.8115 88.6554L68.3223 82.1447" stroke="white" stroke-width="2" stroke-miterlimit="10"/>
<path d="M40.667 38.6334C40.667 28.7494 44.1928 19.6888 50.0569 12.6393" stroke="white" stroke-width="2" stroke-miterlimit="10"/>
<path d="M55.2905 7.3973C56.3723 6.4945 57.5008 5.6466 58.674 4.85767" stroke="white" stroke-width="2" stroke-miterlimit="10"/>
<path d="M59.7843 50.0892C57.9645 46.6732 56.9336 42.7733 56.9336 38.6334C56.9336 34.4935 57.9645 30.5936 59.7843 27.1776" stroke="white" stroke-width="2" stroke-miterlimit="10"/>
<path d="M28.4666 83.3667H24.3999V87.4334H28.4666V83.3667Z" fill="white"/>
<path d="M22.3665 89.4667H18.2998V93.5333H22.3665V89.4667Z" fill="white"/>
<path d="M34.5667 77.2667H30.5V81.3334H34.5667V77.2667Z" fill="white"/>
<path d="M24.4002 58.9667H20.3335V63.0333H24.4002V58.9667Z" fill="white"/>
<path d="M12.2 46.7667H8.1333V50.8334H12.2V46.7667Z" fill="white"/>
<path d="M36.5999 46.7667H32.5332V50.8334H36.5999V46.7667Z" fill="white"/>
<path d="M24.4002 34.5667H20.3335V38.6333H24.4002V34.5667Z" fill="white"/>
<path d="M16.2669 38.6333H12.2002V42.7H16.2669V38.6333Z" fill="white"/>
<path d="M32.5335 38.6333H28.4668V42.7H32.5335V38.6333Z" fill="white"/>
<path d="M16.2669 54.9H12.2002V58.9667H16.2669V54.9Z" fill="white"/>
<path d="M32.5335 54.9H28.4668V58.9667H32.5335V54.9Z" fill="white"/>
<path d="M99.6336 89.4667H95.5669V93.5333H99.6336V89.4667Z" fill="white"/>
<path d="M87.4334 77.2667H83.3667V81.3334H87.4334V77.2667Z" fill="white"/>
<path d="M111.833 77.2667H107.767V81.3334H111.833V77.2667Z" fill="white"/>
<path d="M107.767 69.1333H103.7V73.2H107.767V69.1333Z" fill="white"/>
<path d="M91.4998 85.4H87.4331V89.4667H91.4998V85.4Z" fill="white"/>
<path d="M107.767 85.4H103.7V89.4667H107.767V85.4Z" fill="white"/>
</svg>
