<svg width="115" height="115" viewBox="0 0 115 115" fill="none" xmlns="http://www.w3.org/2000/svg">
<path d="M28.75 51.75H86.25V97.75H28.75V51.75Z" stroke="white" stroke-width="4" stroke-miterlimit="10"/>
<path d="M73.5981 67.4628L69.0077 61.3391L64.4019 67.4648C63.6793 68.425 63.25 69.621 63.25 70.9167C63.25 74.0926 65.8241 76.6667 69 76.6667C72.1759 76.6667 74.75 74.0926 74.75 70.9167C74.75 69.621 74.3207 68.425 73.5981 67.4628Z" stroke="white" stroke-width="4" stroke-miterlimit="10"/>
<path d="M69 76.6667V85.3798" stroke="white" stroke-width="4" stroke-miterlimit="10"/>
<path d="M86.2501 84.3333C78.133 84.3333 63.2501 84.2126 54.2686 91.0972" stroke="white" stroke-width="4" stroke-miterlimit="10"/>
<path d="M60.9308 87.4901C52.0452 77.2608 39.5562 76.6456 28.75 81.6423" stroke="white" stroke-width="4" stroke-miterlimit="10"/>
<path d="M102.241 69.8893C106.532 66.1978 109.25 60.7296 109.25 54.625C109.25 43.5103 100.24 34.5 89.125 34.5H88.1666C87.1987 18.4364 73.807 5.75 57.5 5.75C43.2093 5.75 31.2014 15.525 27.7993 28.7519" stroke="white" stroke-width="4" stroke-miterlimit="10"/>
<path d="M37.95 31.2263C34.9102 29.6432 31.4563 28.75 27.7917 28.75C15.6189 28.75 5.75 38.6189 5.75 50.7917C5.75 56.879 8.21675 62.3894 12.2072 66.378" stroke="white" stroke-width="4" stroke-miterlimit="10"/>
<path d="M51.75 51.75V40.25H48.7102C47.2132 40.25 46 39.0367 46 37.5398C46 36.8211 46.2856 36.1311 46.7935 35.6232L54.2282 28.1884C55.0965 27.3202 56.2733 26.8333 57.5 26.8333C58.7267 26.8333 59.9035 27.3202 60.7718 28.1884L68.2065 35.6232C68.7144 36.1311 69 36.8211 69 37.5398C69 39.0367 67.7867 40.25 66.2898 40.25H63.25V51.75" stroke="white" stroke-width="4" stroke-miterlimit="10"/>
<path d="M70.9168 23H67.0835V26.8333H70.9168V23Z" fill="white"/>
<path d="M70.9168 15.3333H67.0835V19.1667H70.9168V15.3333Z" fill="white"/>
<path d="M21.0833 40.25H17.25V44.0833H21.0833V40.25Z" fill="white"/>
<path d="M21.0833 47.9167H17.25V51.75H21.0833V47.9167Z" fill="white"/>
<path d="M21.0833 55.5833H17.25V59.4167H21.0833V55.5833Z" fill="white"/>
<path d="M32.583 36.4167V46" stroke="white" stroke-width="4" stroke-miterlimit="10"/>
<path d="M78.583 46V42.1667" stroke="white" stroke-width="4" stroke-miterlimit="10"/>
<path d="M78.583 38.3333V26.8333" stroke="white" stroke-width="4" stroke-miterlimit="10"/>
<path d="M93.9165 78.5833V74.75" stroke="white" stroke-width="4" stroke-miterlimit="10"/>
<path d="M93.9165 70.9167V55.5833" stroke="white" stroke-width="4" stroke-miterlimit="10"/>
<path d="M28.7422 89.4259L16.7534 82.5068L28.7498 61.7838" stroke="white" stroke-width="4" stroke-miterlimit="10"/>
<path d="M75.2232 97.75L67.1962 111.617L43.167 97.75" stroke="white" stroke-width="4" stroke-miterlimit="10"/>
<path d="M101.583 93.9167V113.083" stroke="white" stroke-width="4" stroke-miterlimit="10"/>
<path d="M101.583 90.0833V84.3333" stroke="white" stroke-width="4" stroke-miterlimit="10"/>
<path d="M19.1665 111.167V93.9167" stroke="white" stroke-width="4" stroke-miterlimit="10"/>
</svg>
