<svg width="40" height="40" viewBox="0 0 40 40" fill="none" xmlns="http://www.w3.org/2000/svg">
<path fill-rule="evenodd" clip-rule="evenodd" d="M19.6087 35.5182L28.5635 26.5635C33.509 21.6179 33.509 13.5995 28.5635 8.65394C23.6179 3.70836 15.5995 3.70836 10.6539 8.65394C5.70836 13.5995 5.70836 21.6179 10.6539 26.5635L19.6087 35.5182ZM29.9386 7.27879C24.2336 1.57374 14.9838 1.57374 9.27879 7.27879C3.57374 12.9838 3.57374 22.2336 9.27879 27.9386L19.1503 37.8101C19.4035 38.0633 19.8139 38.0633 20.0671 37.8101L29.9386 27.9386C35.6437 22.2336 35.6437 12.9838 29.9386 7.27879Z" fill="#F41A80"/>
<path fill-rule="evenodd" clip-rule="evenodd" d="M28.5635 26.5635L19.6087 35.5182L10.6539 26.5635C5.70836 21.6179 5.70836 13.5995 10.6539 8.65394C15.5995 3.70836 23.6179 3.70836 28.5635 8.65394C33.509 13.5995 33.509 21.6179 28.5635 26.5635ZM20.2185 9.99392C19.9598 9.63544 19.426 9.63544 19.1672 9.99392L16.7661 13.3206C16.6852 13.4327 16.5705 13.516 16.4389 13.5583L12.5331 14.8139C12.1122 14.9492 11.9473 15.4569 12.2082 15.8137L14.6301 19.1253C14.7117 19.2369 14.7555 19.3717 14.7551 19.51L14.7422 23.6126C14.7409 24.0547 15.1727 24.3685 15.5927 24.2305L19.4906 22.9506C19.622 22.9074 19.7637 22.9074 19.8951 22.9506L23.793 24.2305C24.213 24.3685 24.6449 24.0547 24.6435 23.6126L24.6307 19.51C24.6302 19.3717 24.674 19.2369 24.7557 19.1253L27.1775 15.8137C27.4385 15.4569 27.2735 14.9492 26.8526 14.8139L22.9468 13.5583C22.8152 13.516 22.7005 13.4327 22.6196 13.3206L20.2185 9.99392Z" fill="#F41A80"/>
</svg>
