<svg width="30" height="32" viewBox="0 0 30 32" fill="none" xmlns="http://www.w3.org/2000/svg">
<path fill-rule="evenodd" clip-rule="evenodd" d="M30 32V16.4682H24.4363V16.7318C23.8152 16.5599 23.1624 16.4682 22.489 16.4682C18.3407 16.4682 14.9779 19.9451 14.9779 24.2341C14.9779 28.5231 18.3407 32 22.489 32C23.1624 32 23.8152 31.9084 24.4363 31.7365V32H30ZM22.489 26.5351C23.7181 26.5351 24.7144 25.5049 24.7144 24.2341C24.7144 22.9633 23.7181 21.9331 22.489 21.9331C21.2598 21.9331 20.2635 22.9633 20.2635 24.2341C20.2635 25.5049 21.2598 26.5351 22.489 26.5351Z" fill="#FDBD01"/>
<path d="M12.8222 29.6797C11.7717 30.7658 10.4334 31.5055 8.97638 31.8051C7.51938 32.1048 6.00916 31.951 4.63669 31.3632C3.26423 30.7754 2.09116 29.78 1.26584 28.5029C0.440515 27.2258 9.1493e-08 25.7244 0 24.1884C-9.14929e-08 22.6525 0.440515 21.151 1.26584 19.874C2.09116 18.5969 3.26423 17.6015 4.63669 17.0137C6.00916 16.4259 7.51938 16.2721 8.97638 16.5718C10.4334 16.8714 11.7717 17.6111 12.8222 18.6971L9.03123 22.6167C8.73057 22.3058 8.3475 22.0941 7.93046 22.0083C7.51343 21.9226 7.08116 21.9666 6.68833 22.1348C6.29549 22.3031 5.95972 22.588 5.72349 22.9535C5.48726 23.3191 5.36117 23.7488 5.36117 24.1884C5.36117 24.6281 5.48726 25.0578 5.72349 25.4234C5.95972 25.7889 6.29549 26.0738 6.68833 26.2421C7.08116 26.4103 7.51343 26.4543 7.93047 26.3685C8.3475 26.2828 8.73057 26.0711 9.03123 25.7602L12.8222 29.6797Z" fill="#F41A80"/>
<path d="M30 7.76588C30 12.0549 26.6372 15.5318 22.489 15.5318C18.3407 15.5318 14.9779 12.0549 14.9779 7.76588C14.9779 3.4769 18.3407 0 22.489 0C26.6372 0 30 3.4769 30 7.76588Z" fill="#13D075"/>
<path fill-rule="evenodd" clip-rule="evenodd" d="M5.56374 5.7525L0 0V15.5318H15.0221L9.45835 9.77926H5.56374V5.7525Z" fill="#0EA1F1"/>
</svg>
