<svg width="37" height="35" viewBox="0 0 37 35" fill="none" xmlns="http://www.w3.org/2000/svg">
<path fill-rule="evenodd" clip-rule="evenodd" d="M10.7784 1.22829C10.7784 0.549926 11.3283 0 12.0067 0H24.2896C24.968 0 25.5179 0.549926 25.5179 1.22829V13.5112H35.0657C36.1255 13.5112 36.6878 14.7634 35.9837 15.5556L19.0662 34.5877C18.5776 35.1374 17.7188 35.1374 17.2301 34.5877L0.312657 15.5556C-0.391457 14.7634 0.170865 13.5112 1.2307 13.5112H10.7784V1.22829ZM21.2903 20.9891C21.7718 20.4093 22.0126 19.7117 22.0126 18.8961C22.0126 17.8447 21.5212 17.0094 20.5386 16.3904C20.2045 16.1742 19.7967 15.958 19.3152 15.7418L18.3572 15.2554C18.3375 15.2358 18.2687 15.1965 18.1508 15.1375L17.9445 15.0343L17.576 14.7837C17.3303 14.5774 17.2124 14.3661 17.2222 14.1499C17.2222 13.8846 17.3205 13.6734 17.517 13.5161C17.7234 13.3589 17.9985 13.2803 18.3424 13.2803C19.0499 13.2803 19.7771 13.5948 20.5239 14.2236L21.7915 12.4549C21.0545 11.7474 20.2536 11.3003 19.3889 11.1136V9.68387H17.2517V11.1283C16.4656 11.315 15.8416 11.6835 15.3798 12.2338C14.9179 12.7841 14.687 13.4474 14.687 14.2236C14.687 15.2947 15.1882 16.1693 16.1904 16.8473C16.4066 17.0045 16.7997 17.2305 17.3696 17.5253L17.9739 17.8201C18.1901 17.9085 18.3473 17.9822 18.4456 18.0412C19.0352 18.3163 19.33 18.6553 19.33 19.0582C19.33 19.3334 19.217 19.5594 18.991 19.7362C18.765 19.9131 18.4751 20.0015 18.1213 20.0015C17.6595 20.0015 17.2075 19.864 16.7653 19.5888C16.3329 19.3137 15.9841 18.955 15.7188 18.5129L14.1417 20.09C14.8786 21.2593 15.9006 21.9668 17.2075 22.2125V23.7601H19.3447V22.1535C20.1603 21.9472 20.8088 21.559 21.2903 20.9891Z" fill="#13D075"/>
</svg>
