<svg width="122" height="122" viewBox="0 0 122 122" fill="none" xmlns="http://www.w3.org/2000/svg">
<path d="M48.7998 38.6334C48.7998 42.4724 49.4871 46.1466 50.7112 49.5646C50.7783 49.7537 50.8311 49.9469 50.8332 50.1401C50.8372 50.5813 50.6522 51.0144 50.3289 51.3377L13.0457 88.6209C11.2015 90.4651 10.1665 92.96 10.1665 95.5668C10.1665 98.1715 11.2035 100.67 13.0457 102.513L17.4601 106.927C19.3002 108.767 21.7951 109.8 24.3998 109.8C27.0025 109.8 29.5015 108.765 31.3416 106.925L68.6248 69.6418C68.9441 69.3225 69.3629 69.1334 69.796 69.1334C69.9994 69.1334 70.2068 69.1843 70.406 69.2575C73.8241 70.4815 77.4963 71.1668 81.3332 71.1668C99.2997 71.1668 113.867 56.602 113.867 38.6334C113.867 33.6823 112.738 29.0015 110.756 24.8027C110.631 24.5384 110.369 24.4001 110.105 24.4001C109.922 24.4001 109.735 24.4652 109.592 24.6095L91.4998 42.7001L77.2665 28.4668L95.3571 10.3762C95.5014 10.2318 95.5665 10.0468 95.5665 9.86176C95.5665 9.59743 95.4282 9.33513 95.1639 9.2111C90.9651 7.2286 86.2864 6.1001 81.3332 6.1001C63.3666 6.1001 48.7998 20.6649 48.7998 38.6334V38.6334Z" stroke="white" stroke-width="2" stroke-miterlimit="10"/>
<path d="M56.122 94.3447L38.2835 112.183C34.6012 115.866 29.6073 117.933 24.3999 117.933C19.1926 117.933 14.1987 115.866 10.5163 112.183L8.94458 110.611" stroke="white" stroke-width="2" stroke-miterlimit="10"/>
<path d="M61.8113 88.6555L68.322 82.1448" stroke="white" stroke-width="2" stroke-miterlimit="10"/>
<path d="M40.6665 38.6333C40.6665 28.7493 44.1923 19.6887 50.0564 12.6392" stroke="white" stroke-width="2" stroke-miterlimit="10"/>
<path d="M55.2903 7.3973C56.372 6.4945 57.5005 5.6466 58.6738 4.85767" stroke="white" stroke-width="2" stroke-miterlimit="10"/>
<path d="M59.7841 50.0891C57.9643 46.6731 56.9333 42.7732 56.9333 38.6333C56.9333 34.4934 57.9643 30.5935 59.7841 27.1775" stroke="white" stroke-width="2" stroke-miterlimit="10"/>
<path d="M28.4666 83.3667H24.3999V87.4334H28.4666V83.3667Z" fill="white"/>
<path d="M22.3667 89.4666H18.3V93.5332H22.3667V89.4666Z" fill="white"/>
<path d="M34.5667 77.2666H30.5V81.3333H34.5667V77.2666Z" fill="white"/>
<path d="M24.3999 58.9666H20.3333V63.0332H24.3999V58.9666Z" fill="white"/>
<path d="M12.2 46.7666H8.1333V50.8333H12.2V46.7666Z" fill="white"/>
<path d="M36.6001 46.7666H32.5334V50.8333H36.6001V46.7666Z" fill="white"/>
<path d="M24.3999 34.5667H20.3333V38.6333H24.3999V34.5667Z" fill="white"/>
<path d="M16.2666 38.6333H12.2V42.7H16.2666V38.6333Z" fill="white"/>
<path d="M32.5332 38.6333H28.4666V42.7H32.5332V38.6333Z" fill="white"/>
<path d="M16.2666 54.8999H12.2V58.9666H16.2666V54.8999Z" fill="white"/>
<path d="M32.5332 54.8999H28.4666V58.9666H32.5332V54.8999Z" fill="white"/>
<path d="M99.6333 89.4666H95.5667V93.5332H99.6333V89.4666Z" fill="white"/>
<path d="M87.4334 77.2666H83.3667V81.3333H87.4334V77.2666Z" fill="white"/>
<path d="M111.833 77.2666H107.767V81.3333H111.833V77.2666Z" fill="white"/>
<path d="M107.767 69.1333H103.7V73.2H107.767V69.1333Z" fill="white"/>
<path d="M91.5 85.3999H87.4333V89.4666H91.5V85.3999Z" fill="white"/>
<path d="M107.767 85.3999H103.7V89.4666H107.767V85.3999Z" fill="white"/>
</svg>
