<svg width="29" height="34" viewBox="0 0 29 34" fill="none" xmlns="http://www.w3.org/2000/svg">
<path fill-rule="evenodd" clip-rule="evenodd" d="M1.59461 1.62865V31.9968L12.81 25.7291C13.6049 25.2849 14.5666 25.2849 15.3614 25.7291L26.5768 31.9968V1.62865H1.59461ZM1.06307 0C0.475954 0 0 0.486113 0 1.08576V32.9127C0 33.7375 0.864921 34.2611 1.57336 33.8652L13.5754 27.1578C13.8934 26.9802 14.2781 26.9802 14.596 27.1578L26.5981 33.8652C27.3065 34.2611 28.1714 33.7375 28.1714 32.9127V1.08576C28.1714 0.486113 27.6955 0 27.1084 0H1.06307Z" fill="#0EA1F1"/>
<path fill-rule="evenodd" clip-rule="evenodd" d="M1.59461 31.9968V1.62865H26.5768V31.9968L15.3614 25.7291C14.5666 25.2849 13.6049 25.2849 12.81 25.7291L1.59461 31.9968ZM15.8245 6.8873C15.2807 5.54722 13.4221 5.54722 12.8783 6.8873L11.7795 9.59507C11.55 10.1606 11.0294 10.5469 10.4318 10.5951L7.57085 10.8257C6.15494 10.9398 5.58062 12.7451 6.66043 13.6875L8.84229 15.5916C9.29797 15.9893 9.49683 16.6144 9.35703 17.2097L8.68769 20.06C8.35643 21.4706 9.86003 22.5863 11.0712 21.8286L13.5185 20.2977C14.0296 19.9779 14.6731 19.9779 15.1843 20.2977L17.6316 21.8286C18.8427 22.5863 20.3463 21.4706 20.0151 20.06L19.3457 17.2097C19.2059 16.6144 19.4048 15.9893 19.8605 15.5916L22.0424 13.6875C23.1222 12.7451 22.5478 10.9398 21.1319 10.8257L18.271 10.5951C17.6734 10.5469 17.1528 10.1606 16.9233 9.59507L15.8245 6.8873Z" fill="#0EA1F1"/>
</svg>
